<svg version="1.2" xmlns="http://www.w3.org/2000/svg" viewBox="0 0 173 234" width="502" height="522">
	<style>
		.s0 { fill: none;stroke: #323a42;stroke-linejoin: round;stroke-width: 4 } 
	</style>
	<g id="logo">
		<g id="lineas">
		</g>
		<g id="velas">
			<g id="Carpeta 1">
			</g>
			<path id="linea1 copy 5" class="s0" d="m15.78 143h0.44v20h-0.44zm-0.3-84h0.44v20h-0.44zm34.99 113.89h0.45v19.99h-0.44zm-0.46-143.9h0.44v20h-0.44zm34.43-26h0.44v20h-0.44zm-42.94 47.75h17c2.21 0 4 1.79 4 4v112.5c0 2.21-1.79 4-4 4h-17c-2.21 0-4-1.79-4-4v-112.5c0-2.21 1.79-4 4-4zm-34 30.25h17c2.21 0 4 1.79 4 4v52c0 2.21-1.79 4-4 4h-17c-2.21 0-4-1.79-4-4v-52c0-2.21 1.79-4 4-4zm144.52-2.12h-0.45v-20h0.45zm1 84h-0.45v-20h0.45zm-35-113.89h-0.44l-0.01-19.99h0.45zm0.46 143.9h-0.44v-20h0.44zm8.51-21.75h-17c-2.21 0-4-1.8-4-4v-112.5c0-2.21 1.79-4 4-4h17c2.21 0 4 1.79 4 4v112.5c0 2.2-1.79 4-4 4zm34-30.25h-17c-2.21 0-4-1.8-4-4v-52c0-2.21 1.79-4 4-4h17c2.21 0 4 1.79 4 4v52c0 2.2-1.79 4-4 4zm-85-114.88h17c2.21 0 4 1.79 4 4v52c0 2.21-1.79 4-4 4h-17c-2.21 0-4-1.79-4-4v-52c0-2.21 1.79-4 4-4zm8.89 201h-0.45v-20h0.45zm8.11-23h-17c-2.21 0-4-1.79-4-4v-52c0-2.21 1.79-4 4-4h17c2.21 0 4 1.79 4 4v52c0 2.21-1.79 4-4 4z"/>
		</g>
	</g>
</svg>