<svg version="1.2" xmlns="http://www.w3.org/2000/svg" viewBox="0 0 173 234" width="502" height="522">
  <style>
.wick { fill: none; stroke: #eef0f3; stroke-linejoin: round; stroke-width: 4; }
  .candle { stroke: #cbd5e1; stroke-linejoin: round; stroke-width: 4; }
  .accent { fill: #269b78; }
  .accent2 { fill: #a84e38; }
  </style>
  <g id="logo">
    <g id="velas">
      <path class="wick" d="M15.78 143 L16.22 143 L16.22 163 L15.78 163 Z M15.48 59 L15.92 59 L15.92 79 L15.48 79 Z M50.47 172.89 L50.92 172.89 L50.92 192.88 L50.48 192.88 Z M50.01 28.99 L50.45 28.99 L50.45 48.99 L50.01 48.99 Z M84.44 2.99 L84.88 2.99 L84.88 22.99 L84.44 22.99 Z M152.02 78.87 L151.57 78.87 L151.57 58.87 L152.02 58.87 Z M153.02 162.87 L152.57 162.87 L152.57 142.87 L153.02 142.87 Z M118.02 48.98 L117.58 48.98 L117.57 28.99 L118.02 28.99 Z M118.48 192.88 L118.04 192.88 L118.04 172.88 L118.48 172.88 Z M84.88 227 L84.43 227 L84.43 207 L84.88 207 Z"/>
    <path class="candle accent2" d="M41.5 50.74 L58.5 50.74 C60.71 50.74 62.5 52.53 62.5 54.74 L62.5 167.24 C62.5 169.45 60.71 171.24 58.5 171.24 L41.5 171.24 C39.29 171.24 37.5 169.45 37.5 167.24 L37.5 54.74 C37.5 52.53 39.29 50.74 41.5 50.74 Z"/>
    <path class="candle accent2" d="M7.5 80.99 L24.5 80.99 C26.71 80.99 28.5 82.78 28.5 84.99 L28.5 136.99 C28.5 139.2 26.71 140.99 24.5 140.99 L7.5 140.99 C5.29 140.99 3.5 139.2 3.5 136.99 L3.5 84.99 C3.5 82.78 5.29 80.99 7.5 80.99 Z"/>
    <path class="candle accent" d="M126.99 171.13 L109.99 171.13 C107.78 171.13 105.99 169.33 105.99 167.13 L105.99 54.63 C105.99 52.42 107.78 50.63 109.99 50.63 L126.99 50.63 C129.2 50.63 130.99 52.42 130.99 54.63 L130.99 167.13 C130.99 169.33 129.2 171.13 126.99 171.13 Z"/>
    <path class="candle accent" d="M160.99 140.88 L143.99 140.88 C141.78 140.88 139.99 139.08 139.99 136.88 L139.99 84.88 C139.99 82.67 141.78 80.88 143.99 80.88 L160.99 80.88 C163.2 80.88 164.99 82.67 164.99 84.88 L164.99 136.88 C164.99 139.08 163.2 140.88 160.99 140.88 Z"/>
    <path class="candle accent2" d="M75.99 26 L92.99 26 C95.2 26 96.99 27.79 96.99 30 L96.99 82 C96.99 84.21 95.2 86 92.99 86 L75.99 86 C73.78 86 71.99 84.21 71.99 82 L71.99 30 C71.99 27.79 73.78 26 75.99 26 Z"/>
    <path class="candle accent" d="M92.99 204 L75.99 204 C73.78 204 71.99 202.21 71.99 200 L71.99 148 C71.99 145.79 73.78 144 75.99 144 L92.99 144 C95.2 144 96.99 145.79 96.99 148 L96.99 200 C96.99 202.21 95.2 204 92.99 204 Z"/>
    </g>
  </g>
</svg>
